<svg width="235" height="50" viewBox="0 0 235 50" fill="none" xmlns="http://www.w3.org/2000/svg">
<g clip-path="url(#clip0_1098_100846)">
<path d="M24.9853 1.01877e-07C20.0437 1.01877e-07 15.213 1.46623 11.1042 4.21326C6.99541 6.9603 3.79298 10.8648 1.90191 15.4329C0.0108277 20.0011 -0.483967 25.0277 0.480096 29.8773C1.44416 34.7268 3.82378 39.1813 7.31803 42.6777C10.8123 46.174 15.2642 48.555 20.1109 49.5196C24.9576 50.4842 29.9813 49.9892 34.5468 48.097C39.1122 46.2048 43.0144 43.0005 45.7598 38.8892C48.5052 34.778 49.9706 29.9445 49.9706 25C49.9709 21.7169 49.3248 18.4658 48.0693 15.4326C46.8138 12.3993 44.9734 9.64319 42.6532 7.32167C40.3331 5.00015 37.5786 3.15868 34.5471 1.90241C31.5156 0.64615 28.2665 -0.000296294 24.9853 1.01877e-07ZM38.8496 19.2846V38.7746H32.9714V19.2846H26.9361C26.8332 19.2846 26.7309 19.2846 26.6354 19.2899C26.5174 19.2952 26.3994 19.3004 26.2866 19.3102L26.1272 19.326C26.004 19.3358 25.8807 19.3516 25.7626 19.3719C25.6191 19.3975 25.48 19.423 25.3364 19.4546C25.1928 19.4862 25.059 19.5216 24.9206 19.5622C24.8334 19.5878 24.741 19.6134 24.6538 19.6442C24.5666 19.675 24.4741 19.7059 24.3869 19.742C24.2997 19.7781 24.1967 19.8172 24.099 19.8601C24.0238 19.8962 23.9486 19.927 23.8734 19.9684C23.823 19.9882 23.7748 20.0134 23.7298 20.0436C23.6734 20.0697 23.6184 20.0988 23.5652 20.1309C23.336 20.2515 23.1161 20.389 22.9074 20.5423C22.8322 20.5935 22.7638 20.6454 22.6916 20.7018C22.6194 20.7582 22.548 20.8147 22.4759 20.8763C22.4037 20.938 22.3526 20.9847 22.2909 21.0358C22.0745 21.2303 21.8704 21.438 21.6797 21.6579C21.6384 21.7143 21.5925 21.7662 21.5459 21.8226C21.5151 21.864 21.479 21.9054 21.4482 21.9513C21.382 22.0318 21.3203 22.1159 21.2632 22.2032C21.2174 22.2702 21.1655 22.3424 21.1197 22.4139C21.0738 22.4853 21.0325 22.5733 20.9859 22.6501C20.9107 22.784 20.8317 22.9224 20.7603 23.0615C20.7399 23.0915 20.7245 23.1245 20.7145 23.1593C20.6954 23.1908 20.6783 23.2235 20.6633 23.2571C20.6474 23.2888 20.6336 23.3214 20.622 23.3549C20.5912 23.4166 20.5603 23.4835 20.5348 23.5505V23.561C20.5242 23.5788 20.5156 23.5977 20.5092 23.6174C20.4909 23.661 20.4756 23.7057 20.4634 23.7513C20.4634 23.7566 20.4581 23.7566 20.4581 23.7618C20.4581 23.7671 20.4528 23.7724 20.4528 23.7776L20.3446 24.0861C20.2882 24.2658 20.2416 24.4509 20.201 24.6359C20.1544 24.8518 20.1191 25.073 20.0882 25.2986C20.0574 25.5243 20.0521 25.7612 20.0476 25.9974C20.0433 26.0281 20.0415 26.059 20.0424 26.09C20.0417 26.7767 20.1456 27.4595 20.3506 28.1149C20.4484 28.4322 20.5703 28.7415 20.7152 29.0402C20.8129 29.2357 20.9159 29.4306 21.0287 29.6156C21.2546 29.9896 21.5162 30.3408 21.8098 30.6642C21.885 30.7394 21.9602 30.8237 22.0353 30.9004C22.1888 31.0541 22.3499 31.1999 22.518 31.3374C23.7332 32.3429 25.2615 32.8919 26.8384 32.8893V38.7791C24.9149 38.7809 23.0163 38.344 21.2869 37.5014C19.5574 36.6589 18.0427 35.433 16.8578 33.9168C15.673 35.433 14.1582 36.6589 12.4288 37.5014C10.6994 38.344 8.80079 38.7809 6.87726 38.7791V32.8893C8.67969 32.8893 10.4083 32.1728 11.6828 30.8976C12.9573 29.6223 13.6733 27.8927 13.6733 26.0892C13.6733 24.2857 12.9573 22.5561 11.6828 21.2808C10.4083 20.0056 8.67969 19.2892 6.87726 19.2892V13.3933C8.80078 13.3915 10.6994 13.8285 12.4288 14.6711C14.1582 15.5136 15.6729 16.7395 16.8578 18.2556C18.0418 16.7407 19.5551 15.5155 21.2828 14.673C23.0106 13.8305 24.9074 13.3929 26.8294 13.3933H44.9878V19.2831L38.8496 19.2846Z" fill="white"/>
<path d="M67.5276 9.32642H70.3498L73.0411 12.7528L75.7197 9.32642H78.5013L74.4319 14.3302L78.4359 19.2527H75.6265L73.0404 15.9482L70.4407 19.2527H67.6208L71.6383 14.3302L67.5276 9.32642Z" fill="white"/>
<path d="M79.6694 15.3908V9.32642H81.9142V15.3908C81.9142 17.2668 83.411 17.5798 84.3199 17.5798C85.1995 17.5798 86.7091 17.2668 86.7091 15.3908V9.32642H88.9539V15.3908C88.9539 17.9333 87.1293 19.4295 84.3199 19.4295C81.5105 19.4295 79.6694 17.9333 79.6694 15.3908Z" fill="white"/>
<path d="M95.1989 9L100.883 19.2527H98.4278L97.6008 17.7295H92.7699L91.982 19.2527H89.5139L95.1989 9ZM96.5242 15.8941L95.1989 13.2974L93.8727 15.8941H96.5242Z" fill="white"/>
<path d="M104.295 19.2527H102.061V9L109.216 15.0644V9.32646H111.448V19.5657L104.293 13.596L104.295 19.2527Z" fill="white"/>
<path d="M122.843 11.1753V19.2526H120.598V11.1753H117.578V9.31055H125.848V11.1731L122.843 11.1753Z" fill="white"/>
<path d="M136.548 19.2526H134.316V15.3907H129.459V19.2526H127.227V9.31055H129.459V13.523H134.316V9.31055H136.548V19.2526Z" fill="white"/>
<path d="M139.145 19.2526V9.31055H141.377V19.2504L139.145 19.2526Z" fill="white"/>
<path d="M146.129 13.3921H151.091V15.2681H146.129V17.3894H151.734V19.2526H143.884V9.31055H151.735V11.1731H146.13L146.129 13.3921Z" fill="white"/>
<path d="M156.052 19.2527H153.821V9L160.975 15.0644V9.32646H163.208V19.5657L156.053 13.596L156.052 19.2527Z" fill="white"/>
<path d="M177.128 14.5646C177.124 14.9909 177.034 15.412 176.864 15.8027C176.693 16.1934 176.445 16.5455 176.136 16.838C175.826 17.1305 175.46 17.3573 175.06 17.5048C174.66 17.6522 174.235 17.7173 173.809 17.6961C173.346 17.7248 172.881 17.6584 172.444 17.5012C172.007 17.3439 171.607 17.099 171.268 16.7815C170.929 16.464 170.658 16.0805 170.473 15.6547C170.287 15.2288 170.19 14.7695 170.188 14.3048C170.186 13.8402 170.279 13.38 170.461 12.9525C170.643 12.525 170.91 12.1392 171.246 11.8187C171.582 11.4982 171.981 11.2498 172.416 11.0887C172.852 10.9276 173.315 10.8572 173.779 10.8817C174.713 10.9154 175.608 11.2667 176.316 11.8777L175.873 12.499C175.297 11.9723 174.554 11.665 173.775 11.6309C173.413 11.6139 173.051 11.6711 172.712 11.7989C172.373 11.9268 172.064 12.1226 171.803 12.3745C171.543 12.6263 171.337 12.9288 171.197 13.2633C171.058 13.5979 170.988 13.9574 170.992 14.3199C170.997 14.6823 171.075 15.0401 171.223 15.3711C171.371 15.7021 171.584 15.9994 171.851 16.2447C172.118 16.49 172.432 16.6782 172.774 16.7976C173.116 16.9171 173.479 16.9653 173.84 16.9394C175.208 16.9394 176.286 16.0713 176.286 14.8986C176.286 14.8546 176.285 14.8107 176.281 14.7669H173.77V14.09H177.097C177.116 14.2474 177.127 14.4059 177.128 14.5646Z" fill="white"/>
<path d="M186.031 17.6059L184.076 15.0175H182.769V17.6059H181.978L181.974 10.9728H184.041C184.633 10.9429 185.214 11.1483 185.656 11.5445C186.097 11.9407 186.365 12.4955 186.399 13.0881C186.387 13.5135 186.237 13.9234 185.971 14.2559C185.706 14.5884 185.339 14.8256 184.927 14.9318L187.008 17.6067L186.031 17.6059ZM184.068 14.3879C184.258 14.4127 184.451 14.3966 184.635 14.3407C184.818 14.2848 184.988 14.1904 185.132 14.0639C185.276 13.9373 185.391 13.7814 185.47 13.6067C185.549 13.4319 185.59 13.2423 185.59 13.0505C185.59 12.8587 185.549 12.669 185.47 12.4943C185.391 12.3195 185.276 12.1637 185.132 12.0371C184.988 11.9105 184.818 11.8161 184.635 11.7603C184.451 11.7044 184.258 11.6883 184.068 11.713H182.765V14.3834L184.068 14.3879Z" fill="white"/>
<path d="M191.184 14.2933C191.143 13.5719 191.319 12.8547 191.689 12.2345C192.059 11.6143 192.608 11.1197 193.262 10.8148C193.917 10.51 194.648 10.4089 195.361 10.5246C196.074 10.6404 196.735 10.9677 197.26 11.4642C197.785 11.9606 198.148 12.6032 198.304 13.3089C198.459 14.0145 198.399 14.7505 198.131 15.4216C197.864 16.0927 197.401 16.6679 196.803 17.0727C196.204 17.4775 195.499 17.6932 194.776 17.6918C193.851 17.7117 192.956 17.3662 192.283 16.7301C191.611 16.094 191.216 15.2186 191.184 14.2933ZM197.582 14.2895C197.614 13.7289 197.477 13.1716 197.189 12.6897C196.901 12.2077 196.476 11.8233 195.967 11.5861C195.458 11.3489 194.89 11.2699 194.336 11.3593C193.782 11.4487 193.268 11.7023 192.859 12.0874C192.451 12.4725 192.167 12.9713 192.045 13.5194C191.923 14.0675 191.969 14.6395 192.175 15.1617C192.382 15.6838 192.74 16.1319 193.204 16.448C193.667 16.7642 194.215 16.9339 194.776 16.9351C195.498 16.9526 196.198 16.6846 196.723 16.1893C197.248 15.694 197.557 15.0113 197.583 14.2895H197.582Z" fill="white"/>
<path d="M203.151 15.0304V10.9729H203.946V15.0259C203.926 15.2745 203.957 15.5247 204.038 15.7606C204.119 15.9965 204.248 16.213 204.417 16.3965C204.586 16.58 204.791 16.7264 205.02 16.8266C205.248 16.9267 205.495 16.9785 205.744 16.9785C205.993 16.9785 206.24 16.9267 206.468 16.8266C206.697 16.7264 206.902 16.58 207.071 16.3965C207.24 16.213 207.369 15.9965 207.45 15.7606C207.531 15.5247 207.563 15.2745 207.542 15.0259V10.9729H208.334V15.0304C208.342 15.3764 208.281 15.7207 208.155 16.0428C208.028 16.365 207.838 16.6585 207.597 16.9062C207.355 17.1539 207.066 17.3508 206.748 17.4851C206.429 17.6195 206.086 17.6888 205.74 17.6888C205.394 17.6888 205.052 17.6195 204.733 17.4851C204.414 17.3508 204.126 17.1539 203.884 16.9062C203.642 16.6585 203.453 16.365 203.326 16.0428C203.199 15.7207 203.138 15.3764 203.147 15.0304H203.151Z" fill="white"/>
<path d="M213.476 10.9729H215.696C216.305 10.9343 216.905 11.1371 217.366 11.5376C217.827 11.938 218.112 12.5039 218.16 13.113C218.098 13.7085 217.806 14.2562 217.346 14.6386C216.885 15.0209 216.293 15.2075 215.697 15.1583H214.269V17.6067H213.476V10.9729ZM217.367 13.1047C217.326 12.7001 217.128 12.328 216.815 12.068C216.503 11.808 216.101 11.6808 215.696 11.7139H214.267V14.4173L215.696 14.4218C216.091 14.4641 216.487 14.35 216.8 14.1039C217.112 13.8578 217.316 13.4992 217.368 13.1047H217.367Z" fill="white"/>
<path d="M68.0727 30.2962H70.7275L73.5315 37.1371H73.6508L76.4548 30.2962H79.1096V40.478H77.0216V33.8509H76.937L74.3021 40.4283H72.8802L70.2453 33.826H70.1608V40.478H68.0727V30.2962ZM87.1723 30.2962H89.325V36.9084C89.325 37.6508 89.1477 38.3005 88.793 38.8573C88.4417 39.4141 87.9495 39.8483 87.3165 40.1598C86.6834 40.4681 85.946 40.6222 85.1041 40.6222C84.2589 40.6222 83.5198 40.4681 82.8868 40.1598C82.2537 39.8483 81.7615 39.4141 81.4102 38.8573C81.0589 38.3005 80.8832 37.6508 80.8832 36.9084V30.2962H83.0359V36.7245C83.0359 37.1123 83.1205 37.457 83.2895 37.7586C83.4618 38.0602 83.7038 38.2972 84.0153 38.4695C84.3269 38.6419 84.6898 38.728 85.1041 38.728C85.5217 38.728 85.8847 38.6419 86.1929 38.4695C86.5044 38.2972 86.7447 38.0602 86.9138 37.7586C87.0861 37.457 87.1723 37.1123 87.1723 36.7245V30.2962ZM92.8511 40.478H90.5443L94.0592 30.2962H96.8333L100.343 40.478H98.0365L95.486 32.6229H95.4065L92.8511 40.478ZM92.7069 36.4759H98.1558V38.1563H92.7069V36.4759ZM110.332 33.2245C110.293 32.8234 110.122 32.5119 109.82 32.2898C109.519 32.0678 109.109 31.9567 108.592 31.9567C108.241 31.9567 107.944 32.0064 107.702 32.1059C107.461 32.202 107.275 32.3362 107.146 32.5086C107.02 32.6809 106.957 32.8765 106.957 33.0952C106.95 33.2775 106.988 33.4366 107.071 33.5725C107.157 33.7084 107.275 33.826 107.424 33.9255C107.573 34.0216 107.746 34.1061 107.941 34.179C108.137 34.2486 108.345 34.3083 108.568 34.358L109.482 34.5767C109.926 34.6762 110.334 34.8088 110.705 34.9745C111.077 35.1402 111.398 35.344 111.67 35.586C111.942 35.8279 112.152 36.113 112.301 36.4411C112.454 36.7692 112.532 37.1454 112.535 37.5696C112.532 38.1928 112.372 38.733 112.058 39.1904C111.746 39.6445 111.295 39.9974 110.705 40.2493C110.119 40.4979 109.411 40.6222 108.582 40.6222C107.76 40.6222 107.045 40.4963 106.435 40.2444C105.828 39.9925 105.354 39.6196 105.013 39.1258C104.675 38.6286 104.497 38.0138 104.481 37.2813H106.564C106.587 37.6227 106.685 37.9077 106.857 38.1364C107.033 38.3618 107.267 38.5325 107.558 38.6485C107.853 38.7612 108.186 38.8175 108.558 38.8175C108.922 38.8175 109.239 38.7645 109.507 38.6584C109.779 38.5524 109.989 38.4049 110.139 38.216C110.288 38.027 110.362 37.8099 110.362 37.5647C110.362 37.336 110.294 37.1437 110.158 36.988C110.026 36.8322 109.83 36.6996 109.572 36.5902C109.317 36.4809 109.003 36.3814 108.632 36.2919L107.524 36.0135C106.665 35.8047 105.987 35.4783 105.49 35.0341C104.993 34.59 104.746 33.9918 104.749 33.2394C104.746 32.6229 104.91 32.0843 105.242 31.6236C105.576 31.1629 106.035 30.8033 106.619 30.5448C107.202 30.2863 107.865 30.157 108.607 30.157C109.363 30.157 110.023 30.2863 110.586 30.5448C111.153 30.8033 111.594 31.1629 111.908 31.6236C112.223 32.0843 112.386 32.6179 112.396 33.2245H110.332ZM115.505 40.478H113.199L116.713 30.2962H119.488L122.998 40.478H120.691L118.14 32.6229H118.061L115.505 40.478ZM115.361 36.4759H120.81V38.1563H115.361V36.4759ZM119.174 27.875H120.552C120.552 28.3589 120.328 28.7534 119.88 29.0583C119.433 29.3599 118.83 29.5107 118.071 29.5107C117.315 29.5107 116.715 29.3599 116.271 29.0583C115.83 28.7534 115.611 28.3589 115.615 27.875H116.967C116.964 28.0706 117.047 28.2496 117.216 28.412C117.385 28.5711 117.67 28.6506 118.071 28.6506C118.472 28.6506 118.755 28.5711 118.921 28.412C119.09 28.2496 119.174 28.0706 119.174 27.875ZM117.494 27.885L118.374 26.6123H119.831L118.598 27.885H117.494ZM124.223 30.2962H126.878L129.682 37.1371H129.801L132.605 30.2962H135.26V40.478H133.172V33.8509H133.087L130.452 40.4283H129.031L126.396 33.826H126.311V40.478H124.223V30.2962ZM139.886 32.0711V30.2962H148.248V32.0711H145.131V40.478H143.003V32.0711H139.886ZM150.136 40.478H147.829L151.344 30.2962H154.118L157.628 40.478H155.322L152.771 32.6229H152.692L150.136 40.478ZM149.992 36.4759H155.441V38.1563H149.992V36.4759ZM153.731 29.3814L152.731 28.1684L151.732 29.3814H149.927V29.3118L151.941 27.1243H153.517L155.535 29.3118V29.3814H153.731ZM152.731 43.3367C152.417 43.3367 152.146 43.2323 151.921 43.0235C151.696 42.8147 151.583 42.5628 151.583 42.2678C151.583 41.9728 151.696 41.7209 151.921 41.5121C152.146 41.3033 152.417 41.1989 152.731 41.1989C153.046 41.1989 153.315 41.3033 153.537 41.5121C153.762 41.7209 153.875 41.9728 153.875 42.2678C153.875 42.5628 153.762 42.8147 153.537 43.0235C153.315 43.2323 153.046 43.3367 152.731 43.3367ZM158.854 40.478V30.2962H162.871C163.643 30.2962 164.301 30.4437 164.845 30.7387C165.388 31.0303 165.803 31.4364 166.088 31.9567C166.376 32.4738 166.52 33.0704 166.52 33.7465C166.52 34.4226 166.374 35.0192 166.083 35.5363C165.791 36.0533 165.368 36.456 164.815 36.7444C164.265 37.0327 163.598 37.1769 162.816 37.1769H160.256V35.4517H162.468C162.883 35.4517 163.224 35.3805 163.492 35.238C163.764 35.0921 163.966 34.8916 164.099 34.6364C164.235 34.3779 164.303 34.0812 164.303 33.7465C164.303 33.4084 164.235 33.1134 164.099 32.8615C163.966 32.6063 163.764 32.4091 163.492 32.2699C163.221 32.1274 162.876 32.0562 162.458 32.0562H161.007V40.478H158.854ZM170.771 32.0711V30.2962H179.133V32.0711H176.016V40.478H173.888V32.0711H170.771ZM180.51 40.478V30.2962H184.527C185.296 30.2962 185.952 30.4338 186.496 30.7089C187.043 30.9806 187.459 31.3668 187.744 31.8672C188.032 32.3644 188.176 32.9494 188.176 33.6222C188.176 34.2983 188.031 34.88 187.739 35.3672C187.447 35.8511 187.025 36.2223 186.471 36.4809C185.921 36.7394 185.255 36.8687 184.473 36.8687H181.783V35.1385H184.125C184.536 35.1385 184.877 35.0822 185.149 34.9695C185.42 34.8568 185.623 34.6878 185.755 34.4624C185.891 34.237 185.959 33.957 185.959 33.6222C185.959 33.2841 185.891 32.9991 185.755 32.7671C185.623 32.5351 185.419 32.3594 185.144 32.2401C184.872 32.1175 184.529 32.0562 184.115 32.0562H182.663V40.478H180.51ZM186.009 35.8445L188.539 40.478H186.163L183.687 35.8445H186.009ZM195.987 30.2962H198.139V36.9084C198.139 37.6508 197.962 38.3005 197.607 38.8573C197.256 39.4141 196.764 39.8483 196.131 40.1598C195.498 40.4681 194.76 40.6222 193.919 40.6222C193.073 40.6222 192.334 40.4681 191.701 40.1598C191.068 39.8483 190.576 39.4141 190.225 38.8573C189.873 38.3005 189.698 37.6508 189.698 36.9084V30.2962H191.85V36.7245C191.85 37.1123 191.935 37.457 192.104 37.7586C192.276 38.0602 192.518 38.2972 192.83 38.4695C193.141 38.6419 193.504 38.728 193.919 38.728C194.336 38.728 194.699 38.6419 195.007 38.4695C195.319 38.2972 195.559 38.0602 195.728 37.7586C195.901 37.457 195.987 37.1123 195.987 36.7245V30.2962ZM208.427 30.2962V40.478H206.568L202.138 34.0696H202.063V40.478H199.911V30.2962H201.8L206.195 36.6996H206.284V30.2962H208.427ZM216.957 33.5874C216.887 33.3455 216.79 33.1317 216.664 32.9461C216.538 32.7571 216.384 32.5981 216.201 32.4688C216.022 32.3362 215.817 32.2351 215.585 32.1655C215.356 32.0959 215.103 32.0611 214.824 32.0611C214.304 32.0611 213.846 32.1904 213.452 32.4489C213.061 32.7074 212.756 33.0836 212.537 33.5775C212.318 34.068 212.209 34.6679 212.209 35.3772C212.209 36.0865 212.317 36.6897 212.532 37.1868C212.748 37.684 213.053 38.0635 213.447 38.3253C213.841 38.5839 214.307 38.7131 214.844 38.7131C215.331 38.7131 215.747 38.6269 216.092 38.4546C216.44 38.2789 216.705 38.032 216.887 37.7138C217.073 37.3956 217.166 37.0195 217.166 36.5853L217.603 36.6499H214.978V35.0292H219.239V36.3118C219.239 37.2067 219.05 37.9757 218.672 38.6187C218.294 39.2583 217.774 39.7522 217.111 40.1002C216.448 40.4449 215.689 40.6172 214.834 40.6172C213.88 40.6172 213.041 40.4068 212.318 39.9858C211.596 39.5616 211.032 38.96 210.628 38.1812C210.227 37.399 210.027 36.4709 210.027 35.3971C210.027 34.5718 210.146 33.836 210.384 33.1897C210.626 32.5401 210.964 31.9899 211.399 31.5391C211.833 31.0883 212.338 30.7453 212.915 30.51C213.492 30.2747 214.116 30.157 214.789 30.157C215.366 30.157 215.903 30.2415 216.4 30.4106C216.897 30.5763 217.338 30.8116 217.723 31.1165C218.11 31.4214 218.427 31.7844 218.672 32.2053C218.917 32.6229 219.075 33.0836 219.144 33.5874H216.957Z" fill="white"/>
</g>
<defs>
<clipPath id="clip0_1098_100846">
<rect width="234.188" height="50" fill="white"/>
</clipPath>
</defs>
</svg>
